# xmcd
#
# Track frame offsets: 
#        150
#        12085
#        23372
#        38727
#        49457
#        62727
#        73915
#        83405
#        103320
#        113537
#        122925
#        137830
#        149620
#        159325
#        172705
#        188330
#        201367
#        214597
#        231110
#        245975
#        270740
#        285142
#        295182
#        307935
#        320795
#
# Disc length: 4585 seconds
#
# Revision: 2
# Processed by: cddbd v1.5.2PL0 Copyright (c) Steve Scherf et al.
# Submitted via: ExactAudioCopy v0.99pb3
#
DISCID=6411e719
DTITLE=JJ Cale - Anyway The Wind Blows
DYEAR=1900
DGENRE=Rock
TTITLE0=Call Me The Breeze
TTITLE1=Crazy Mama
TTITLE2=Magnolia
TTITLE3=After Midnight
TTITLE4=Lies
TTITLE5=Changes
TTITLE6=If You're Ever in Oklahoma
TTITLE7=Midnight In Memphis
TTITLE8=Cajun Moon
TTITLE9=Rock and Roll Records
TTITLE10=Any Way The Wind Blows
TTITLE11=Crying
TTITLE12=Everlovin' Woman
TTITLE13=I Got The Same Old Blues
TTITLE14=Woke Up This Morning
TTITLE15=Cocaine
TTITLE16=Woman That Got Away
TTITLE17=Ride Me High
TTITLE18=Hey Baby
TTITLE19=Durangoc (live)
TTITLE20=I'll Make Love To You Anytime
TTITLE21=Don't Cry Sister
TTITLE22=Thirteen Days
TTITLE23=Things Ain't That Simple (live)
TTITLE24=Sensitive Kind
EXTD=
EXTT0=
EXTT1=
EXTT2=
EXTT3=
EXTT4=
EXTT5=
EXTT6=
EXTT7=
EXTT8=
EXTT9=
EXTT10=
EXTT11=
EXTT12=
EXTT13=
EXTT14=
EXTT15=
EXTT16=
EXTT17=
EXTT18=
EXTT19=
EXTT20=
EXTT21=
EXTT22=
EXTT23=
EXTT24=
PLAYORDER=
